<svg id="Layer_1" data-name="Layer 1" xmlns="http://www.w3.org/2000/svg" viewBox="0 0 499.43 560.82"><defs><style>.cls-1{fill:#1e348e;}.cls-2{fill:#80aae8;}.cls-3{fill:#0e0e49;}</style></defs><title>arryn</title><rect class="cls-1" width="499.43" height="560.82"/><rect class="cls-2" x="134.52" y="0.95" width="226.41" height="559.87"/><polygon class="cls-3" points="156.47 159.57 93.38 314.1 95.76 330.88 107.55 315.1 102.86 347.99 118.52 327.74 113.5 365.35 145.91 309.5 186.23 242.34 199.76 286.01 184.43 301.54 167.9 300.37 179.04 310.65 170.2 318.33 183.02 321.61 181.17 330.97 194.91 321.26 194.64 308.19 215.37 300.16 151.9 409.58 154.45 424 169.2 416.73 194.54 376.99 185.14 426.16 190.21 438.38 203.7 432.21 212.93 385.4 220.01 470.14 236.59 436.9 236.55 487.91 253.19 436.88 257.45 477.52 287.22 391.83 287.51 438.12 298.74 447.21 310.03 438.52 307.45 390.88 326.97 433.78 343.33 437.3 345.59 422.04 285.27 301.52 308.47 309.09 314.8 320.21 328.8 323.57 320.44 307.56 338.06 309.99 320.26 293.31 338.13 292.2 308.02 281.77 303.65 293.33 283.23 280.03 307.81 234.3 399.5 364.15 386.47 313.4 407.07 340.95 393.37 299.65 416.58 323.83 418.07 302.58 307.98 147.71 274.01 158.37 268.75 131.9 287.64 133.23 269.24 108.2 257.4 74.15 199.06 77.16 205.29 157.08 156.47 159.57"/></svg>