<?xml version="1.0" encoding="utf-8"?>
<!-- Generator: Adobe Illustrator 23.1.1, SVG Export Plug-In . SVG Version: 6.00 Build 0)  -->
<svg version="1.1" id="Layer_1" xmlns="http://www.w3.org/2000/svg" xmlns:xlink="http://www.w3.org/1999/xlink" x="0px" y="0px"
	 viewBox="0 0 250 280" style="enable-background:new 0 0 250 280;" xml:space="preserve">
<style type="text/css">
	.st0{stroke:#000000;stroke-miterlimit:10;}
	.st1{fill:#141414;}
	.st2{fill:#8C8C8C;}
	.st3{fill:#333333;}
</style>
<rect x="-0.4" y="-0.5" class="st0" width="250.6" height="280.2"/>
<rect x="70" y="-0.9" class="st1" width="110.9" height="281.3"/>
<polygon class="st2" points="195,98.5 165.2,92.4 161.3,83.7 131.6,82.5 116.5,71.7 103.2,88.5 87.2,86.1 94,95.2 77.3,94.3 
	86.2,104.5 72.4,103.6 82.5,110.9 63.1,116.2 72.9,124.2 51.1,127.7 65.3,134 52.3,140.3 63.7,144.6 46.8,146.4 55.3,153.3 
	34.3,156.2 58.3,163 64.2,161 51.8,175.8 73,170.3 69.1,186.3 86.1,174.7 80,186.5 93,184.1 90.2,200.7 102.3,195.5 105.2,213.7 
	117.3,199.5 123,227.1 126.2,199.5 132.7,219.8 135.4,187 142.5,188.2 145.6,176.9 151.2,186.2 154.3,164.9 161.5,172.5 
	162.2,158.8 172,162.4 169.3,146.8 165.7,136.8 174.5,133.9 187.9,140.2 189.1,144.5 191.7,140.8 194,144.2 195.6,140.8 
	201.6,136.4 206.5,120.5 201,125.5 184.1,121.6 173.7,120 171.6,110.6 175.4,111.8 176.4,107.4 181.8,111.1 184.6,108 203.8,111.2 
	203,112 201.8,117.1 205.9,113.7 206.1,117.8 209.8,114.2 215.9,106.1 214.1,102 "/>
<path class="st3" d="M213.7,104.7"/>
</svg>
