<svg id="Layer_1" data-name="Layer 1" xmlns="http://www.w3.org/2000/svg" viewBox="0 0 499.85 560.2"><defs><style>.cls-1{fill:#af9600;}.cls-2{fill:#ccba3a;}.cls-3{fill:#020202;stroke:#000;stroke-miterlimit:10;}</style></defs><title>baratheon</title><rect class="cls-1" y="0.32" width="499.85" height="559.88"/><rect class="cls-2" x="161.14" width="180.25" height="560.2"/><polygon class="cls-3" points="107.34 121.03 91.47 131.13 75.6 161.44 68.38 135.46 61.16 170.1 64.05 191.75 94.36 271.12 116 295.65 94.36 301.42 79.92 288.43 85.7 314.41 123.22 320.18 179.5 359.15 152.08 373.58 131.88 364.92 140.54 389.45 198.26 377.91 206.92 403.88 188.16 393.78 201.15 424.09 219.91 431.3 245.88 382.24 235.78 354.82 126.11 258.13 95.8 193.19 134.76 158.55 98.69 171.54 91.47 157.11 107.34 121.03"/><polygon class="cls-3" points="392.61 122.72 408.48 132.82 424.36 163.12 431.57 137.15 438.79 171.78 435.9 193.43 405.6 272.8 383.95 297.33 405.6 303.11 420.03 290.12 414.25 316.09 376.73 321.87 320.45 360.83 347.87 375.26 368.07 366.6 359.42 391.13 301.69 379.59 293.03 405.57 311.79 395.46 298.81 425.77 280.05 432.99 254.07 383.92 264.17 356.5 373.85 259.81 404.15 194.87 365.19 160.24 401.27 173.23 408.48 158.79 392.61 122.72"/></svg>