<?xml version="1.0" encoding="utf-8"?>
<!-- Generator: Adobe Illustrator 23.1.1, SVG Export Plug-In . SVG Version: 6.00 Build 0)  -->
<svg version="1.1" id="Layer_1" xmlns="http://www.w3.org/2000/svg" xmlns:xlink="http://www.w3.org/1999/xlink" x="0px" y="0px"
	 viewBox="0 0 250 280" style="enable-background:new 0 0 250 280;" xml:space="preserve">
<style type="text/css">
	.st0{fill:#020202;}
	.st1{opacity:0.17;}
	.st2{fill:#3A3A3A;}
	.st3{fill:#CC001E;}
	.st4{fill:none;}
	.st5{stroke:#000000;stroke-miterlimit:10;}
	.st6{fill:#BA0214;stroke:#000000;stroke-miterlimit:10;}
</style>
<title>Artboard 1</title>
<rect x="-2" y="-1" width="252.8" height="280.9"/>
<rect x="-2" y="-1" class="st0" width="252.8" height="280.9"/>
<g>
	<g class="st1">
		<rect x="-2" y="-1" class="st2" width="252.8" height="280.9"/>
	</g>
</g>
<polyline class="st3" points="41.2,161.2 53.7,188.9 61.5,195.5 70.1,200.6 83.4,208.6 103.9,210 131.9,206.6 146.9,196.9 
	154.6,186.6 154.6,173.4 155.4,165.5 153.6,161.7 150,165.8 145.7,175.9 141.7,181.1 139.6,187.8 136.6,182.6 133.4,184.4 
	113.2,185.5 91.8,183.7 86.4,188.9 76.6,188.9 84.2,182.6 75.9,178.5 67.6,181.8 73.4,172.9 68,171 77.7,165.1 85.7,174.8 98,178.1 
	113.2,177 124.7,171 131.2,162.9 127.2,152.1 120.8,143.5 119.7,148.7 110.3,159.5 106.6,165.1 102.3,165.1 104.5,159.1 85.3,152.4 
	81.7,156.5 73.4,156.2 79.2,151.3 73.4,144.6 64.7,141.3 57.5,135.7 67.6,136.1 61.8,130.5 71.9,132.4 72.7,126.4 80.6,134.2 
	84.9,142.8 91.8,146.5 100.5,147.6 95.4,136.1 86,122.4 81,117.5 71.2,113.1 61.5,110.5 56,115.7 50.2,128.3 47.3,132 46.3,128.3 
	47.3,116.9 42,125.2 42.7,127.5 39.8,127.3 38.5,124.3 39.5,116.8 42,109.6 57.9,92 50.6,106.3 63,96.9 59.5,100.8 67.1,99.8 
	75.4,99.8 74.8,104.4 83.7,101.1 83.3,105.4 91,103.4 94.5,107 97.6,103.7 94.1,93.3 89.1,86.4 84,81.8 71.9,91.6 68.4,92.3 
	65.8,88.1 69,87.7 75.1,80.9 65.5,81.2 64.2,84.1 60.4,81.8 62.7,79.5 73.5,74.6 69.7,73 88.1,65.8 84.6,70.7 93.5,76.3 102.1,81.8 
	97.6,83.5 107.5,89.7 104.6,90.7 108.8,94.2 123,85.4 129.1,74.8 127.6,70.2 122.8,66.2 108.1,70.1 117,62.5 108.5,59.9 105.3,62.9 
	102.9,56.9 125.8,54.6 133.1,51.4 141.8,57.5 134.1,57.5 139.1,65.9 144.6,78.6 137.3,75.3 140.9,82.4 135.4,81.9 142.7,93.4 
	159.6,87.6 161.3,68.7 150.8,40.2 203.9,79.2 224.1,113.5 208.3,150.8 193.9,207.2 177.4,221.8 168.8,227.4 150.1,228.3 
	131.8,230.7 116.2,227.4 133.6,225.5 148.2,221.3 159.6,218 170.1,214.7 168.3,209.6 174.7,206.7 181.6,193.3 184.3,195.5 
	186.8,183 182.7,174.4 186.8,169.6 180.3,164.4 186.1,158.9 176.5,147.6 170.6,156.1 172.3,160.6 172.3,173.5 173.3,190.4 
	161.9,210 145.5,216.1 130.9,222.2 111.7,223.6 95.7,223.6 82,223.6 87.5,221.3 65.6,212.8 56.8,204 46.5,195.4 39.1,183 
	35.4,174.4 32.9,169.9 30.6,154.2 36.1,143.5 46.4,142.5 52.6,146.6 59.8,157.2 57.1,166.8 50.5,167.9 43.7,164.1 40.2,156.2 
	42,151.5 47.7,151.4 52.7,156.1 50.4,159.5 44.3,151.5 "/>
<polyline class="st4" points="46.5,128.8 47.6,114.6 50,117.6 53.2,126 "/>
<polygon class="st5" points="41.2,152 47.4,152.2 51.5,156.7 47.6,160.5 "/>
<polyline class="st6" points="36.1,143.5 39,134.3 41.5,132.2 42,142.6 "/>
</svg>
