<?xml version="1.0" encoding="utf-8"?>
<!-- Generator: Adobe Illustrator 23.1.1, SVG Export Plug-In . SVG Version: 6.00 Build 0)  -->
<svg version="1.1" id="Layer_1" xmlns="http://www.w3.org/2000/svg" xmlns:xlink="http://www.w3.org/1999/xlink" x="0px" y="0px"
	 viewBox="0 0 250 280" style="enable-background:new 0 0 250 280;" xml:space="preserve">
<style type="text/css">
	.st0{fill:#063300;}
	.st1{fill:#0F4F08;}
</style>
<rect x="-0.2" y="0.3" class="st0" width="250.4" height="280.6"/>
<rect x="80.1" y="-0.6" class="st1" width="88.5" height="280.6"/>
<polygon points="187.1,121.2 163.1,110.8 145.4,92.5 114.8,77.4 117.9,64.4 107.1,66.2 97.6,70.7 94.9,75.6 76,81.5 52.3,83.2 
	51.9,107.2 41.5,124.4 56.4,125.3 45.8,133.4 47.6,156.6 52.1,173.1 58.4,202.3 59.8,196 63.4,188.3 61.1,210 66.1,221.2 
	81.9,194.7 83.2,205.9 79.2,217.2 101.7,196.5 110.3,192.4 101.7,205.5 131,196.9 141.4,190.1 131,203.2 148.6,195.6 155.4,184.7 
	154.9,197.4 166.2,180.2 167.5,186.1 181.9,176.6 193.7,170.8 182.9,165.8 184.2,157.2 172.9,162.6 164.8,160.4 168.4,153.6 
	155.4,157.2 147.8,152.2 158.7,145.4 175.6,145.1 172.5,149.1 181.5,147.3 179.7,151.8 190.5,150 200,151.8 195,160.4 204.5,154.1 
	208.1,154.1 212.6,146 208.1,139.2 215.3,142.4 216.2,146.4 221.6,135.6 "/>
<path d="M19.5-64.2"/>
<polygon class="st1" points="132.9,109.3 133.6,114.3 138.3,115.1 139.7,107.3 127.2,103 "/>
</svg>
