<?xml version="1.0" encoding="utf-8"?>
<!-- Generator: Adobe Illustrator 23.1.1, SVG Export Plug-In . SVG Version: 6.00 Build 0)  -->
<svg version="1.1" id="Layer_1" xmlns="http://www.w3.org/2000/svg" xmlns:xlink="http://www.w3.org/1999/xlink" x="0px" y="0px"
	 viewBox="0 0 250 280" style="enable-background:new 0 0 250 280;" xml:space="preserve">
<style type="text/css">
	.st0{fill:#33722E;}
	.st1{fill:#59A352;}
	.st2{fill:#EFF437;stroke:#000000;stroke-miterlimit:10;}
	.st3{fill:#33722E;stroke:#000000;stroke-miterlimit:10;}
	.st4{fill:#9B9B27;stroke:#000000;stroke-miterlimit:10;}
</style>
<rect x="0.3" y="-0.2" class="st0" width="249.7" height="281.1"/>
<rect x="80.7" y="-0.2" class="st1" width="91.2" height="279.2"/>
<g>
	<polygon class="st2" points="156.4,66.4 81.6,66.4 47.1,119 51.3,177.6 87.5,214.8 156.6,214.8 198,177.3 198.3,115.5 	"/>
	<polygon class="st3" points="131.1,88.3 133.6,77.3 122.1,69.3 110.5,70.1 109.3,83.1 115.7,95.5 	"/>
	<polyline class="st2" points="116,94.8 115.5,59.2 121.8,41.5 129.9,55.1 127.9,89.7 	"/>
	<polygon class="st3" points="159.6,192.7 169.2,198.7 180.5,190.3 183.5,179.1 171.6,173.8 157.8,175.8 	"/>
	<polyline class="st2" points="158.4,176.4 192.2,187.4 206.8,199.1 191.4,202.4 159.3,189.2 	"/>
	<polygon class="st3" points="81.4,173.1 70.7,177 70.4,191.1 77.5,200.3 89,194.1 95.8,182 	"/>
	<polyline class="st2" points="95,182.1 65.6,202.1 47.4,206.5 54.3,192.3 84.3,175 	"/>
	<polygon class="st4" points="136.4,117.5 112.9,117.5 103.4,132.8 102.7,155.1 112.2,166.6 138.6,167.3 148.1,157.4 148.1,131.3 	
		"/>
	<g>
		<polygon class="st4" points="129.2,128 130.3,124.4 126.7,121.6 122.9,121.6 122.2,125.8 124,130 		"/>
		<polyline class="st4" points="123.3,128.6 124.1,117.3 127.4,110 129,116.8 128.1,128.3 		"/>
	</g>
	<g>
		<polygon class="st4" points="141.8,145.8 145.5,146.5 147.9,142.6 147.4,138.8 143.1,138.6 139.2,141 		"/>
		<polyline class="st4" points="140.4,140.1 151.8,139.5 159.4,141.9 152.9,144.3 141.3,144.8 		"/>
	</g>
	<g>
		<polygon class="st4" points="122,159.9 121.3,163.5 125.2,165.9 129,165.5 129.2,161.2 126.9,157.3 		"/>
		<polyline class="st4" points="127.8,158.5 128.2,169.9 125.8,177.5 123.5,170.9 123.1,159.3 		"/>
	</g>
	<g>
		<polygon class="st4" points="110.5,140.2 107,139.2 104.2,142.9 104.4,146.6 108.6,147.2 112.7,145.3 		"/>
		<polyline class="st4" points="111.4,146 100,145.5 92.7,142.4 99.4,140.7 111,141.2 		"/>
	</g>
	<g>
		<polygon class="st2" points="130.3,131.8 119,131.8 114.5,138.8 114.1,149 118.7,154.2 131.3,154.6 135.9,150 135.9,138.1 		"/>
		<polygon class="st2" points="128.8,135.1 121.1,135.1 118,139.9 117.8,146.9 120.9,150.5 129.6,150.7 132.7,147.6 132.7,139.4 		
			"/>
	</g>
	<line class="st3" x1="121.4" y1="59.1" x2="121.4" y2="77.4"/>
	<g>
		<polygon class="st3" points="83,103.1 74.1,96.1 62,103.1 57.7,113.8 68.9,120.5 82.9,120.1 		"/>
		<polyline class="st2" points="82.4,119.5 50,104.7 36.8,91.3 52.5,89.9 82.9,106.6 		"/>
		<line class="st3" x1="53.9" y1="99.2" x2="70" y2="107.9"/>
	</g>
	<line class="st3" x1="63.6" y1="195.2" x2="78.4" y2="184.5"/>
	<line class="st3" x1="164.2" y1="184.2" x2="180.8" y2="191.8"/>
	<g>
		<polygon class="st3" points="173.9,122.5 184.4,118.3 184.3,104.3 176.9,95.3 165.6,101.8 159.2,114.1 		"/>
		<polyline class="st2" points="159.9,114 188.7,93.1 206.8,88.1 200.4,102.5 170.9,120.7 		"/>
		<line class="st3" x1="187" y1="104.5" x2="171.7" y2="114.6"/>
	</g>
</g>
</svg>
