<?xml version="1.0" encoding="utf-8"?>
<!-- Generator: Adobe Illustrator 23.1.1, SVG Export Plug-In . SVG Version: 6.00 Build 0)  -->
<svg version="1.1" id="Layer_1" xmlns="http://www.w3.org/2000/svg" xmlns:xlink="http://www.w3.org/1999/xlink" x="0px" y="0px"
	 viewBox="0 0 499.4 560.8" style="enable-background:new 0 0 499.4 560.8;" xml:space="preserve">
<style type="text/css">
	.st0{fill:#1E348E;}
	.st1{fill:#80AAE8;}
	.st2{fill:#0E0E49;}
</style>
<title>arryn</title>
<rect class="st0" width="499.4" height="560.8"/>
<rect x="134.5" y="0.9" class="st1" width="226.4" height="559.9"/>
<polygon class="st2" points="156.5,159.6 93.4,314.1 95.8,330.9 107.6,315.1 102.9,348 118.5,327.7 113.5,365.4 145.9,309.5 
	186.2,242.3 205.3,279.3 184.4,301.5 167.9,300.4 179,310.6 170.2,318.3 184.1,316.8 181.2,331 194.7,317.5 194.6,308.2 
	212.8,300.8 151.9,409.6 154.4,424 169.2,416.7 194.5,377 185.1,426.2 190.2,438.4 203.7,432.2 212.9,385.4 220,470.1 236.6,436.9 
	236.6,487.9 253.2,436.9 257.5,477.5 287.2,391.8 287.5,438.1 298.7,447.2 310,438.5 307.5,390.9 327,433.8 343.3,437.3 345.6,422 
	285.3,301.5 308.5,309.1 311.9,316.9 323.2,320.1 316.2,309 329.6,307.2 318.9,296.5 330.7,293.3 311.4,290.1 303.6,293.3 
	283.2,280 307.8,234.3 399.5,364.1 386.5,313.4 407.1,341 393.4,299.6 416.6,323.8 411.1,297 326.8,150.7 274,158.4 268.8,131.9 
	287.6,133.2 269.2,108.2 257.4,74.2 210.9,77.2 205.8,162.5 "/>
</svg>
