<?xml version="1.0" encoding="utf-8"?>
<!-- Generator: Adobe Illustrator 23.1.1, SVG Export Plug-In . SVG Version: 6.00 Build 0)  -->
<svg version="1.1" id="Layer_1" xmlns="http://www.w3.org/2000/svg" xmlns:xlink="http://www.w3.org/1999/xlink" x="0px" y="0px"
	 viewBox="0 0 250.1 280.1" style="enable-background:new 0 0 250.1 280.1;" xml:space="preserve">
<style type="text/css">
	.st0{fill:#95ABDB;}
	.st1{fill:none;stroke:#000000;stroke-miterlimit:10;}
	.st2{fill:#E6B9EF;}
	.st3{fill:#FFFFFF;stroke:#4B64AA;stroke-miterlimit:10;}
	.st4{fill:#FFFFFF;}
</style>
<title>tarth</title>
<g>
	<rect x="0" class="st0" width="250.1" height="280.1"/>
	<path class="st1" d="M164.7,191.5"/>
	<path class="st1" d="M157.1,199.9"/>
	<path class="st1" d="M154.3,211.7"/>
	<path class="st1" d="M216.2,202.5"/>
	<path class="st1" d="M210.2,198.2"/>
	<path class="st1" d="M173.8,186.4"/>
	<path class="st1" d="M164.7,191.5"/>
	<rect y="0.1" class="st2" width="120.1" height="140.9"/>
	<rect x="120.1" y="141.2" class="st2" width="130" height="138.8"/>
	<polygon class="st3" points="206.5,191.2 192.7,174.7 169.6,181.1 161.1,197.1 162.1,228.4 171.4,246.1 197.6,244.6 211.9,226.9 
		188.8,234 178,234.6 173.7,223.8 173.4,200.1 176.5,191.4 190.1,185.3 	"/>
	<polyline class="st3" points="200.2,99.6 195.4,113.5 186.4,101.1 180.1,113.5 174.9,99.2 158.1,108 164.4,89.4 147.2,86.9 
		159,75.9 147.2,67.7 161.5,62.5 153.8,44.1 169.7,51 	"/>
	<polyline class="st3" points="204.9,53.6 222.1,48.2 210.2,65.3 226.5,72.8 211,79.3 226.1,88.1 209.5,92.2 214.6,107.2 200,99.7 	
		"/>
	<polyline class="st3" points="205.2,54.3 203.3,35.1 187.9,48.2 170.7,32.1 169.6,51 	"/>
	<polygon class="st4" points="200.2,99.6 167.1,98.2 170.4,50.5 205.2,54.3 	"/>
	<polygon class="st3" points="192.8,56.9 180.2,57.1 172.1,65.3 172.8,83.1 178,91 194.8,91 199.6,83.1 199.6,64.6 	"/>
	<polyline class="st3" points="74,234.6 69.2,248.4 60.1,236.1 53.8,248.4 48.6,234.2 31.8,243 38.1,224.4 21,221.9 32.7,210.9 
		21,202.7 35.2,197.5 27.5,179.1 43.4,186 	"/>
	<polyline class="st3" points="78.6,188.6 95.8,183.1 84,200.3 100.2,207.8 84.7,214.2 99.9,223.1 83.2,227.1 88.3,242.1 
		73.7,234.6 	"/>
	<polyline class="st3" points="78.9,189.3 77,170.1 61.7,183.2 44.4,167.1 43.3,186 	"/>
	<polygon class="st4" points="74,234.6 40.8,233.1 44.1,185.5 78.9,189.3 	"/>
	<polygon class="st3" points="66.6,191.9 53.9,192.1 45.8,200.3 46.6,218.1 51.7,226 68.6,226 73.3,218.1 73.3,199.6 	"/>
	<polygon class="st3" points="78.2,53.5 64.4,37.1 41.3,43.5 32.8,59.4 33.8,90.8 43.1,108.5 69.2,106.9 83.6,89.2 60.5,96.4 
		49.7,96.9 45.4,86.1 45.1,62.5 48.2,53.8 61.8,47.6 	"/>
</g>
</svg>
