<?xml version="1.0" encoding="utf-8"?>
<!-- Generator: Adobe Illustrator 23.1.1, SVG Export Plug-In . SVG Version: 6.00 Build 0)  -->
<svg version="1.1" id="Layer_1" xmlns="http://www.w3.org/2000/svg" xmlns:xlink="http://www.w3.org/1999/xlink" x="0px" y="0px"
	 viewBox="0 0 500 560" style="enable-background:new 0 0 500 560;" xml:space="preserve">
<style type="text/css">
	.st0{fill:#324C54;}
	.st1{fill:#134254;}
	.st2{fill:none;stroke:#000000;stroke-miterlimit:10;}
	.st3{fill:#A0A0A0;}
</style>
<rect x="152.1" y="0.5" class="st0" width="200.4" height="560.2"/>
<rect x="-1.4" y="0.2" class="st1" width="177.5" height="560.5"/>
<rect x="324.6" y="-0.5" class="st1" width="175.4" height="560.8"/>
<g>
	<g>
		<polygon class="st2" points="252.9,203 263.1,178.6 250.8,149.1 240.7,178.7 		"/>
		<g>
			<polygon class="st3" points="309.7,388.9 317.7,379.4 296.8,355.9 293.2,385.5 320.5,432.4 363.7,429.8 400.4,359.4 365.8,250.8 
				346.4,224.7 316.9,232.5 289.6,264.7 276.7,277.7 267.3,269 263,260.3 278.1,259.5 290.3,245.6 268,249.7 285.3,217.8 
				312.3,160.5 246.8,67.4 183.3,157.8 217,224.7 233.5,248.3 214.1,246.4 224.3,260.2 237.1,261.2 218.4,283.8 198.3,272.5 
				180.3,241.2 158,228.2 130.7,251.6 96.9,373.3 135.6,437.7 185.3,440.2 202.6,405.4 204.6,360.9 183.5,380.7 190.5,394 
				181,432.4 147.6,425.7 110.5,375.9 138.6,263.8 160.9,246.4 176.7,252.5 191.1,278.6 217.7,298.6 244.3,268.2 247.8,268.2 
				257.2,268.2 275.2,286.4 298.2,271.6 322.7,240.4 344.1,239.8 355.8,257.7 385.3,364.6 357.2,420.2 323.4,418.5 			"/>
			<polyline class="st3" points="251.6,283.3 295.2,292.3 281.4,319.3 310.6,300.9 334.3,323 329.4,343.6 337.3,341.3 342.8,328.1 
				342.5,388.4 357.4,351.1 350.1,311.2 335.5,304.6 315.4,291.4 342.8,282.6 331.9,276 301.5,278.2 289.9,276.7 			"/>
			<polyline class="st3" points="251.6,283.3 217.7,298.6 223,318.6 193.9,300.2 170.1,322.2 175,342.8 167.1,340.6 161.6,327.4 
				147.6,397.3 145.8,359 154.3,310.5 168.9,303.9 189,290.7 161.6,281.8 172.6,275.2 188.8,274.2 			"/>
		</g>
	</g>
	<polygon class="st3" points="250.6,420.6 199.1,336.2 199.1,253.2 224.5,235.3 219,247 208,273.8 214.9,343.1 	"/>
	<polygon class="st3" points="249.2,421.2 300.7,336.8 300.7,253.8 275.3,235.9 280.8,247.6 291.8,274.4 284.9,343.7 	"/>
</g>
<polygon class="st0" points="245.4,135 230.9,162.8 250,217.6 261.6,161.5 "/>
</svg>
