<?xml version="1.0" encoding="utf-8"?>
<!-- Generator: Adobe Illustrator 23.1.1, SVG Export Plug-In . SVG Version: 6.00 Build 0)  -->
<svg version="1.1" id="Layer_1" xmlns="http://www.w3.org/2000/svg" xmlns:xlink="http://www.w3.org/1999/xlink" x="0px" y="0px"
	 viewBox="0 0 150 150" style="enable-background:new 0 0 150 150;" xml:space="preserve">
<style type="text/css">
	.st0{fill:#606060;}
	.st1{fill:#606060;stroke:#1E1E1E;stroke-miterlimit:10;}
	.st2{fill:none;stroke:#1E1E1E;stroke-miterlimit:10;}
	.st3{fill:#FFFFFF;}
</style>
<g>
	<g>
		<g>
			<path class="st0" d="M104.3,143.7c0.7,0.1,1.3,0.2,2,0.2c0.6,0,1.3,0,1.9,0c-0.1,0-0.3,0-0.4-0.1c0.6,0.1,1.1,0.3,1.7,0.3
				c0.8,0,1.5-0.7,1.5-1.5c0-0.8-0.7-1.5-1.5-1.5c-0.1,0-0.2,0-0.3,0c0.1,0,0.3,0,0.4,0.1c-0.5-0.1-0.9-0.2-1.4-0.3
				c-0.4,0-0.8,0-1.2,0c-0.9,0-1.8-0.1-2.6-0.2c-0.4,0-0.8,0.2-1.1,0.4c-0.3,0.3-0.5,0.7-0.4,1.1c0,0.4,0.1,0.8,0.4,1.1
				C103.5,143.5,103.9,143.6,104.3,143.7L104.3,143.7z"/>
		</g>
	</g>
	<g>
		<g>
			<path class="st0" d="M105.8,134.8c0,1-0.1,2-0.2,3c0,0.5,0,0.9-0.1,1.4c0,0.5-0.1,1,0.1,1.4c0.2,0.6,0.6,1,1.2,1.4
				c0.1,0.1,0.2,0.1,0.2,0.2c0.1,0.1,0.1,0-0.1-0.1c0.1,0.1,0.2,0.2,0.3,0.2c0.2,0.1,0.3,0.2,0.5,0.3c0.2,0.1,0.4,0.2,0.5,0.2
				c0.2,0.1-0.3-0.2,0,0c0.1,0,0.1,0.1,0.2,0.1c-0.3-0.2,0,0.1-0.1-0.1c0.3,0.4,0.5,0.8,0.9,1.2c0.6,0.6,1.6,0.6,2.1,0
				c0.5-0.6,0.6-1.5,0-2.1c0,0-0.2-0.3-0.1-0.1c0.1,0.1,0-0.1-0.1-0.1c-0.1-0.2-0.2-0.3-0.3-0.5c-0.3-0.4-0.7-0.8-1.2-1
				c-0.2-0.1-0.3-0.1-0.5-0.2c0,0-0.3-0.1-0.1,0c0.2,0.1-0.1-0.1-0.1-0.1c-0.1-0.1-0.1,0,0,0c-0.2-0.1-0.5-0.4-0.7-0.5
				c0.1,0.1,0.1,0.1,0,0c0.1,0.1,0.1,0.3,0.2,0.4c0.1,0.2,0,0,0-0.1c0-0.1,0-0.2,0-0.3c0-0.2,0-0.3,0-0.5c0-0.5,0-0.9,0.1-1.4
				c0.1-0.9,0.2-1.9,0.2-2.8c0-0.8-0.7-1.5-1.5-1.5C106.5,133.3,105.8,133.9,105.8,134.8L105.8,134.8z"/>
		</g>
	</g>
	<g>
		<g>
			<path class="st0" d="M108.7,142.5c1.9,0,1.9-3,0-3C106.7,139.5,106.7,142.5,108.7,142.5L108.7,142.5z"/>
		</g>
	</g>
	<g>
		<g>
			<path class="st0" d="M108.4,141.8c1.9,0,1.9-3,0-3C106.5,138.8,106.5,141.8,108.4,141.8L108.4,141.8z"/>
		</g>
	</g>
	<g>
		<g>
			<path class="st0" d="M99.9,143.4c1.9,0,1.9-3,0-3C98,140.4,98,143.4,99.9,143.4L99.9,143.4z"/>
		</g>
	</g>
	<g>
		<g>
			<path class="st0" d="M98.5,144.1c1.9,0,1.9-3,0-3C96.6,141.1,96.6,144.1,98.5,144.1L98.5,144.1z"/>
		</g>
	</g>
	<g>
		<g>
			<path class="st0" d="M99.6,142.7c1.9,0,1.9-3,0-3C97.7,139.7,97.7,142.7,99.6,142.7L99.6,142.7z"/>
		</g>
	</g>
	<g>
		<g>
			<path class="st0" d="M98,144.4c1.9,0,1.9-3,0-3C96.1,141.4,96.1,144.4,98,144.4L98,144.4z"/>
		</g>
	</g>
	<g>
		<g>
			<path class="st0" d="M96.6,145.3c1.9,0,1.9-3,0-3C94.7,142.3,94.7,145.3,96.6,145.3L96.6,145.3z"/>
		</g>
	</g>
	<g>
		<g>
			<path class="st0" d="M97.2,145.3c3.1,0,6.1,0,9.2,0c0.6,0,1.3,0,1.9,0c0.3,0-0.2,0,0.2,0c0.2,0,0.4,0.1,0.7,0.1
				c1,0.1,2.1,0.3,3-0.1c1.2-0.6,1.4-2.3,0.3-3.1c-0.2-0.1-0.3-0.2-0.5-0.3c-0.2-0.1-0.3-0.1-0.5-0.2c-0.3-0.1-0.1,0,0,0
				c-0.3-0.2-0.7-0.8-1-1.1c-0.8-0.7-1.4-1.6-2.3-2.1c-0.5-0.3-1.1-0.5-1.7-0.5c-0.7,0-1.2,0.2-1.8,0.4c-0.7,0.2-1.5,0.2-2.2,0.4
				c-0.6,0.2-1.3,0.4-1.9,0.5c-1.3,0.3-2.7,0.7-3.8,1.7c-1.4,1.3,0.7,3.5,2.1,2.1c0.7-0.7,2.1-0.8,3.1-1.1c0.7-0.2,1.4-0.4,2.1-0.5
				c0.4-0.1,0.8-0.1,1.2-0.2c0.3-0.1,0.6-0.2,0.9-0.3c0.3-0.1,0.5,0.1,0.7,0.3c0.4,0.4,0.8,0.8,1.2,1.2c0.5,0.4,0.8,1,1.3,1.4
				c0.3,0.3,0.6,0.4,1,0.6c0.1,0,0.2,0,0.1,0c0.5,0,0.1,0.7-0.2-0.4c0-0.3,0-0.5,0-0.8c0.1-0.2,0.3-0.4,0.4-0.5
				c0.2-0.1,0.2-0.1,0-0.1c0.2,0,0.2,0,0,0c-0.1,0-0.2,0-0.3,0c-0.5,0-0.6,0-1-0.1c-1.1-0.2-2.1-0.2-3.2-0.2c-3,0-6,0-9,0
				C95.3,142.3,95.2,145.3,97.2,145.3L97.2,145.3z"/>
		</g>
	</g>
	<g>
		<polyline class="st1" points="99.6,124.7 132.7,93.1 135.1,87.2 128.5,87.8 73.2,124.8 140.1,78 141.3,73.4 133.9,73.4 
			63.9,125.1 138.9,68.5 138.6,63.9 132.7,63.9 57,124.8 137,59.3 137.4,53.7 130.8,54.4 51.3,124.8 134.7,49.8 133.1,44.6 
			125.7,46.2 51.1,120.5 130,40.3 130,37 125,37 51,113.2 		"/>
		<polyline class="st1" points="51.3,124.8 19.2,94.7 16.8,88.8 23.4,89.4 54.5,114.3 11.8,79.6 10.6,75 18,75 57.6,108.4 
			12.9,70.1 13.3,65.5 19.2,65.5 61.9,104.5 14.9,60.9 14.5,55.3 21.1,56 66.6,99.9 17.2,51.4 18.8,46.2 26.2,47.8 73.6,97.8 
			21.9,41.9 21.9,38.6 26.9,38.6 79.3,92.8 		"/>
		<polyline class="st1" points="94.5,143.7 99.6,138.5 99.6,124.7 50.2,125 51,140.1 54.5,145 51,140.1 51,113.2 42.1,112.6 
			44,140.4 39.3,145 		"/>
		<line class="st2" x1="77.5" y1="101" x2="82.2" y2="105"/>
		<line class="st2" x1="83" y1="97.4" x2="86.6" y2="101"/>
		<line class="st1" x1="86.3" y1="108.4" x2="99.6" y2="122.2"/>
		<line class="st2" x1="90.7" y1="105.2" x2="99.6" y2="113.9"/>
		<line class="st2" x1="60.3" y1="103" x2="64.9" y2="106.9"/>
		<line class="st2" x1="65.7" y1="99.1" x2="69.2" y2="102.8"/>
		<line class="st2" x1="68.5" y1="109.7" x2="72.1" y2="113.2"/>
		<line class="st2" x1="72.6" y1="106.2" x2="76.2" y2="109.4"/>
		<line class="st2" x1="51.3" y1="111.7" x2="63" y2="120.4"/>
		<line class="st2" x1="60.3" y1="111.4" x2="56.8" y2="107.8"/>
		<line class="st2" x1="59.6" y1="117.7" x2="63" y2="120.4"/>
		<line class="st2" x1="63.3" y1="113.7" x2="67" y2="117.3"/>
		<polyline class="st1" points="69.7,82.7 28.4,37.8 28.6,34 34,34.2 70.1,74.5 29.7,29 30.2,24.6 36.9,25.9 69,63.5 33.2,21.4 
			32.9,16.1 39.3,16.7 69.3,52.6 		"/>
		<polyline class="st1" points="79,84 120.1,38.7 119.8,34.9 114.5,35.1 79.1,74.6 118.7,29.9 118.2,25.5 111.6,26.8 78.5,64.9 
			115.3,22.3 115.5,17 109.2,17.6 75.6,55.3 		"/>
		<polyline class="st1" points="103.1,24 103.6,10.9 102,8.6 98.6,11.1 95,34.1 95.3,11.8 92.6,9.1 89.9,12.1 89.4,40 87.7,11.4 
			83.9,8.5 81.8,11.5 83.8,46 81.4,13.5 77.6,7.9 74.5,14.1 76.3,53.8 		"/>
		<polyline class="st1" points="66.8,15.8 63.7,9.5 59.9,15.2 58.1,39.3 59.5,13.2 57.4,10.1 53.6,13 52.4,32.6 51.4,13.8 
			48.7,10.8 46,13.5 46.5,23.4 42.7,12.7 39.3,10.3 36.6,13.5 67.2,50.2 		"/>
		<polygon class="st1" points="79,84 73.3,17.5 69.5,10.5 65.9,18.1 70,84 74.9,88 		"/>
		<g>
			<g>
				<path class="st0" d="M59,116.9c1.9,0,1.9-3,0-3C57.1,113.9,57.1,116.9,59,116.9L59,116.9z"/>
			</g>
		</g>
		<g>
			<g>
				<path class="st0" d="M88.6,120.3c-1,0-2,0.1-3,0.4c-0.8,0.2-1.7,0.9-2.6,0.8c0.3,0.3,0.7,0.7,1,1c0,0.1,0,0.2,0,0.3
					c-0.1,0.2-0.3,0.4-0.4,0.7c0.3-0.3,0.9-0.7,1.2-1.2c0.5-0.9,0.2-1.9-0.7-2.4c-0.9-0.5-1.8-0.1-2.6,0.4c-0.1,0.1,0,0,0,0
					c-0.2,0.1-0.4,0.1-0.5,0.2c-0.5,0.2-0.9,0.4-1.4,0.7c-1.1,0.6-0.9,2.4,0.4,2.7c1.4,0.3,2.7,0.3,4.1,0.3c1.3,0,2.6,0.4,3.9,0.5
					c1.4,0,2.8,0,4.2,0c0.7,0,1.3,0,2,0c0.7,0,1.5-0.3,2.2-0.2c1.9,0.1,1.9-2.9,0-3c-0.7,0-1.3,0.1-1.9,0.2c-0.6,0.1-1.3,0-2,0
					c-1.4,0-2.8,0-4.2,0c-1.3,0-2.6-0.4-3.9-0.5c-1.2-0.1-2.4,0.1-3.6-0.2c0.1,0.9,0.2,1.8,0.4,2.7c0.4-0.2,0.8-0.4,1.3-0.6
					c0.2-0.1,0.5-0.2,0.7-0.3c0.1-0.1,0.2-0.2,0.4-0.3c0.3-0.3,0.1-0.3-0.8-0.1c-0.2-0.2-0.4-0.4-0.5-0.5c0,0,0,0.1,0.1,0.1
					c-0.1-0.3-0.1-0.5-0.2-0.8c0-0.4,0.4-0.6,0.1-0.5c-0.2,0.1-0.4,0.3-0.6,0.5c-0.5,0.6-0.6,1.3-0.4,2c0.1,0.5,0.5,1,1,1
					c1.2,0.2,2.2,0,3.4-0.5c1-0.4,1.9-0.6,3-0.6C90.5,123.3,90.5,120.3,88.6,120.3L88.6,120.3z"/>
			</g>
		</g>
		<g>
			<g>
				<path class="st0" d="M102.1,129.7c0.1,0.7-0.4,1.6-0.7,2.4c-0.4,1-0.6,2-1,3c-0.7,2.2-1.3,4.5-1.3,6.8c0,1.9,3,1.9,3,0
					c0-2.2,0.7-4.4,1.3-6.5c0.3-0.9,0.5-1.9,0.9-2.7c0.4-1,0.9-1.9,0.8-3c-0.1-0.8-0.6-1.5-1.5-1.5
					C102.8,128.2,102,128.8,102.1,129.7L102.1,129.7z"/>
			</g>
		</g>
		<g>
			<g>
				<path class="st0" d="M100.7,125.5c0,3.4,0,6.8,0,10.1c0,0.8,0.7,1.5,1.5,1.5c0.8,0,1.5-0.7,1.5-1.5c0-3.4,0-6.8,0-10.1
					c0-0.8-0.7-1.5-1.5-1.5C101.4,124,100.7,124.7,100.7,125.5L100.7,125.5z"/>
			</g>
		</g>
		<g>
			<g>
				<path class="st0" d="M100.2,125.7c0,2.2-0.2,4.5,0.2,6.7c0.1,0.6,0.2,1.1,0.4,1.7c0,0.1,0.1,0.5,0,0.2c-0.1-0.2,0,0,0,0.1
					c0,0.1,0,0.1,0,0.2c0,0.2,0-0.1,0-0.2c0,0,0,0.1,0,0.1c0.1-0.2,0.2-0.4,0.4-0.5c0.1-0.1,0.2-0.2,0.4-0.2
					c0.3-0.1,0.4-0.1,0.2-0.1c0.5,0.4,1,0.7,1.4,1.1c0-0.1-0.1-0.3,0-0.1c0,0.2,0-0.1,0-0.1c0.1-0.2,0.2-0.5,0.2-0.7
					c0.1-0.6,0.1-1.1,0.1-1.7c0-0.8-0.7-1.5-1.5-1.5c-0.8,0-1.5,0.7-1.5,1.5c0,0.1,0,0.3,0,0.4c0,0.8,0.7,1.5,1.5,1.5
					c0.8,0,1.5-0.7,1.5-1.5c0-0.2,0-0.4,0-0.6c0-0.8-0.7-1.5-1.5-1.5c-0.8,0-1.5,0.7-1.5,1.5c0,0.2,0,0.4,0,0.6
					c0,0.8,0.7,1.5,1.5,1.5c0.8,0,1.5-0.7,1.5-1.5c0-0.1,0-0.3,0-0.4c-1,0-2,0-3,0c0,0.3,0,0.6,0,0.8c0,0.1,0,0.1,0,0.2
					c0-0.1,0-0.1,0,0c0,0.1-0.1,0.3-0.1,0.4c-0.2,0.7-0.3,1.4-0.1,2.1c0.2,0.6,0.8,1.1,1.4,1.1c1.3,0,2-1,2-2.2
					c0-0.7-0.2-1.4-0.3-2.1c-0.2-1-0.3-1.9-0.3-3c0-1.3,0-2.6,0-3.9c0-0.8-0.7-1.5-1.5-1.5C100.9,124.3,100.2,124.9,100.2,125.7
					L100.2,125.7z"/>
			</g>
		</g>
		<g>
			<g>
				<path class="st0" d="M104.6,131c0,1.6,0,3.2,0,4.8c0,0.6,0.1,1.3,0,1.7c-0.1,0.4-0.2,0.7-0.2,1.1c0,0.2,0,0.4,0,0.5
					c0,0.1,0,0.4,0,0.3c0.8-0.2,1.7-0.4,2.5-0.7c-0.2-0.2,0.2,0.4,0.1,0.2c0-0.1,0-0.1,0-0.2c0,0.2,0,0.2,0,0c0-0.2,0-0.5-0.1-0.7
					c0-0.3-0.1-0.6-0.1-1c0-0.5,0-1-0.1-1.5c-0.1-0.3-0.2-0.7-0.2-1c-0.1-0.4,0-0.8,0-1.2c0-0.9,0.1-1.7,0.1-2.6c-1,0-2,0-3,0
					c0,0.3-0.1,0.7-0.3,1.2c-0.1,0.5-0.2,0.9-0.3,1.4c-0.1,1.1-0.1,2.2-0.3,3.2c-0.1,1-0.5,2-0.5,3c0,0.2,0,0.4,0,0.6
					c0,0.4,0.1-0.1,0,0.2c-0.3,0.7-0.3,1.3,0,2c0.3,0.7,1.4,0.9,2.1,0.5c0.1-0.1,0.2-0.1,0.2-0.2c0.7-0.5,1-1.3,0.5-2.1
					c-0.4-0.7-1.4-1-2.1-0.5c-0.1,0.1-0.2,0.1-0.2,0.2c0.7,0.2,1.4,0.4,2.1,0.5c0,0,0-0.1-0.1-0.1c0.1,0.3,0.1,0.5,0.2,0.8
					c0,0.1-0.1,0.2-0.1,0.3c0.1-0.2,0.1-0.3,0.2-0.5c0.1-0.3,0.1-0.5,0.1-0.8c0-0.4,0-0.8,0.1-1.2c0.2-1,0.4-2,0.5-3
					c0.1-1,0.1-2,0.2-2.9c0-0.1,0.2-0.7,0.3-1c0.2-0.5,0.3-1.1,0.3-1.6c0-0.8-0.7-1.5-1.5-1.5c-0.8,0-1.5,0.7-1.5,1.5
					c0,1-0.1,2-0.1,3c0,0.5,0.1,1.1,0.2,1.6c0.1,0.4,0.2,0.7,0.2,1c0,0.5,0,1.1,0.1,1.6c0.1,0.6,0-0.4,0,0.2c0,0.1,0,0.2,0,0.4
					c0.1,0.8,0.1,1.7,0.8,2.3c0.9,0.7,2.1,0.5,2.5-0.7c0.1-0.4,0.1-0.8,0.1-1.3c0-0.2,0.1-0.4,0.2-0.8c0.2-0.8,0.1-1.5,0.1-2.2
					c0-1.7,0-3.3,0-5c0-0.8-0.7-1.5-1.5-1.5C105.3,129.5,104.6,130.2,104.6,131L104.6,131z"/>
			</g>
		</g>
		<g>
			<g>
				<path class="st0" d="M75.2,117.4C75.1,117.6,75.5,117.1,75.2,117.4C75.1,117.5,75.2,117.5,75.2,117.4
					C75.3,117.4,75.2,117.4,75.2,117.4c-0.3,0.2-0.6,0.4-0.9,0.6c-0.2,0.2-0.4,0.4-0.5,0.6c-0.2,0.3-0.1,0,0,0c0,0-0.1,0.1-0.1,0.1
					c0.2-0.2,0.4-0.3,0.7-0.3c0.4,0.8,0.9,1.5,1.3,2.3c-0.1,0.1-0.2,0.2-0.3,0.3c0.2-0.1-0.1,0-0.1,0c0.2-0.1-0.1,0.1-0.1,0
					c0,0,0.2,0,0.2,0c0.4,0,0.8,0,1.1-0.1c0.3-0.1,0.5-0.2,0.8-0.3c0.1,0,0.3-0.1,0.4-0.1c0.2-0.1-0.3,0-0.1,0c0.2,0-0.4-0.1-0.1,0
					c-0.4-0.5-0.7-1-1.1-1.4c0,0.1,0,0.1,0-0.1c0-0.1,0-0.2,0.1-0.3c0.1-0.2,0.2-0.4,0.4-0.5c-0.2,0.1,0.2,0,0.1-0.1
					c0,0-0.1,0-0.2,0c0.1,0,0.4,0,0.1,0c-0.1,0-0.1,0-0.2,0c-0.1,0-0.2,0-0.4,0c-0.9,0-1.7,0.3-2.5,0.8c0,0-0.2,0.1-0.2,0.1
					c0.2-0.1,0.2-0.1,0.1,0c-0.1,0-0.1,0-0.2,0.1c-0.2,0.1-0.4,0.1-0.6,0.2c-0.4,0.1-0.9,0.3-1.3,0.5c-0.4,0.2-0.8,0.5-1.2,0.8
					c-0.1,0.1-0.1,0.1-0.2,0.2c-0.2,0.2,0.2-0.1,0,0c-0.1,0-0.2,0.1-0.2,0.2c-0.1,0-0.4,0.2-0.1,0.1c0.5,0.8,1,1.7,1.5,2.5
					c0.2-0.1,0.3-0.3,0.5-0.4c0.1-0.1,0.2-0.1,0.2-0.2c0.2-0.1-0.3,0.2,0,0c0.3-0.2,0.7-0.4,1-0.6c0.8-0.4,1.5-0.8,2.2-1.4
					c-0.7-0.7-1.4-1.4-2.1-2.1c-0.1,0.1-0.1,0.1-0.2,0.2c-0.2,0.2,0.2-0.1,0,0c-0.1,0.1-0.3,0.1,0,0c0.1,0,0.6,0.1,0.3,0
					c0.4,0.5,0.7,1,1.1,1.4c0,0.4-0.3,0.8-0.6,1c-0.3,0.2-0.3,0.1-0.2,0.1c0.1,0,0.2,0,0.3-0.1c0.4-0.1,0.8-0.3,1.1-0.6
					c0.6-0.5,0.6-1.6,0-2.1c-0.6-0.6-1.5-0.6-2.1,0c0.1-0.1,0.3-0.2,0.4-0.3c0,0,0,0-0.1,0c-0.1,0-0.1,0-0.2,0c-0.1,0-0.3,0-0.4,0.1
					c-0.8,0.3-1.3,0.9-1.3,1.8c0,0.7,0.5,1.2,1.1,1.4c1,0.4,2-0.2,2.8-0.9c0.6-0.5,0.6-1.6,0-2.1c-0.6-0.6-1.5-0.6-2.1,0
					c0,0-0.3,0.2-0.1,0.1c0.2-0.1-0.1,0.1-0.1,0.1c-0.2,0.1-0.3,0.2-0.5,0.3c-0.3,0.2-0.7,0.4-1,0.5c-0.8,0.4-1.5,1-2.2,1.6
					c-0.5,0.4-0.6,1.3-0.2,1.8c0.3,0.5,1.1,0.9,1.7,0.7c0.6-0.2,1.1-0.5,1.6-0.9c0.1-0.1,0.3-0.4,0.5-0.4c0,0-0.1,0.1-0.1,0.1
					c0.1,0,0.1-0.1,0.2-0.1c0,0,0.3-0.2,0.1-0.1c-0.2,0.1,0.1,0,0.1-0.1c0.1,0,0.2-0.1,0.3-0.1c0.2-0.1,0.5-0.1,0.7-0.2
					c0.5-0.2,1-0.4,1.4-0.6c0.1,0,0.1-0.1,0.2-0.1c0.3-0.2-0.1,0,0,0c0.1,0,0.2,0,0.2-0.1c0.3-0.1-0.3,0,0.1,0c0.3,0,0.5,0,0.8,0
					c0.5,0,0.9-0.1,1.3-0.4c0.6-0.4,1-1.1,0.9-1.7c0-0.7-0.4-1.3-1.1-1.4c-0.5-0.1-1.1-0.1-1.6,0.1c-0.2,0.1-0.3,0.1-0.5,0.2
					c-0.1,0-0.2,0.1-0.3,0.1c-0.1,0-0.3,0.1-0.1,0c0.3,0-0.1,0-0.1,0c-0.1,0-0.2,0-0.2,0c-0.3,0-0.5,0-0.8,0.1
					c-0.6,0.1-1.1,0.6-1.5,1.1c-0.6,0.9,0.2,2.4,1.3,2.3c0.6-0.1,1-0.2,1.5-0.6c0.2-0.2,0.3-0.3,0.4-0.5c0,0,0.1-0.1,0.1-0.1
					c0.1-0.1-0.2,0.3-0.1,0.1c0.1-0.2,0.1,0-0.1,0c0,0,0.1-0.1,0.2-0.1c0.1-0.1,0.2-0.1,0.3-0.2c0.4-0.3,0.8-0.6,1-1
					c0.4-0.7,0.2-1.7-0.5-2.1C76.6,116.5,75.7,116.7,75.2,117.4L75.2,117.4z"/>
			</g>
		</g>
		<g>
			<g>
				<path class="st0" d="M75.2,118.5c-0.5,0.3-1,0.5-1.5,0.8c-0.3,0.2-0.6,0.4-0.9,0.7c-0.2,0.1,0,0,0.1-0.1c-0.1,0-0.1,0.1-0.2,0.1
					c-0.1,0.1-0.2,0.1-0.3,0.2c-0.4,0.2-0.8,0.4-1.1,0.6c-0.6,0.4-1.1,1-1.4,1.7c-0.2,0.5,0,1.1,0.4,1.5c1.3,1.2,2.8,0.1,3.9-0.7
					c0.2-0.1,0.3-0.2,0.5-0.3c0.2-0.1-0.5,0.2-0.2,0.1c0.1,0,0.2-0.1,0.2-0.1c0.2-0.1,0.4-0.1,0.6-0.2c0.8-0.3,1.7-0.6,2.4-1.2
					c0.3-0.2,0.6-0.5,0.7-0.9c0.1-0.4,0.1-0.8-0.2-1.2c-0.4-0.6-1.4-1-2.1-0.5c-0.3,0.2-0.6,0.4-0.9,0.5c-0.1,0-0.2,0.1-0.3,0.1
					c-0.3,0.1,0.3-0.1,0,0c-0.2,0.1-0.3,0.1-0.5,0.2c-0.6,0.2-1.2,0.4-1.7,0.7c-0.4,0.3-0.7,0.6-1.1,0.8c-0.1,0.1-0.2,0.1-0.3,0.2
					c0,0-0.1,0.1-0.1,0.1c-0.2,0.1,0.4-0.1,0.2-0.1c0,0-0.1,0-0.1,0c-0.2,0.1,0.4,0,0.3,0c-0.2,0,0.4,0.1,0.3,0c-0.1,0,0,0,0.3,0.1
					c0.3,0.2,0.3,0.3,0.2,0.2c0.1,0.5,0.3,1,0.4,1.5c-0.2,0.5,0,0.2,0,0c-0.2,0.2-0.2,0.3-0.1,0.1c0,0,0.1-0.1,0.1-0.1
					c0.3-0.3-0.2,0.1,0,0c0.1-0.1,0.2-0.1,0.3-0.2c0.3-0.2,0.7-0.4,1.1-0.6c0.3-0.2,0.6-0.4,0.8-0.6c0,0,0.3-0.3,0.3-0.2
					c-0.2,0.1-0.2,0.2-0.1,0.1c0.1,0,0.1-0.1,0.2-0.1c0.4-0.3,0.9-0.4,1.4-0.7c0.3-0.2,0.6-0.5,0.7-0.9c0.1-0.4,0.1-0.8-0.2-1.2
					C76.9,118.4,75.9,118,75.2,118.5L75.2,118.5z"/>
			</g>
		</g>
		<g>
			<g>
				<path class="st0" d="M83.1,119.4c-2,0-4,0.1-5.9,0c-0.9,0-1.8-0.3-2.8-0.3c-0.9,0-1.8,0-2.7-0.1c-1.9-0.2-3.7-0.2-5.5-0.1
					c-0.8,0-1.5,0-2.3,0.1c-0.6,0-1.9,0.3-2.4-0.1c0.2,0.3,0.5,0.6,0.7,0.9c-0.5,0.7-0.6,1-0.3,0.8c0.1-0.1,0.2-0.1,0.3-0.1
					c0.3-0.1,0.6-0.2,0.8-0.3c0.6-0.3,1.1-0.6,1.7-0.9c0.9-0.5,1.9-1.3,2-2.5c0-0.5-0.3-1.1-0.7-1.3c-2.1-1-4.8,0.1-6.8,0.9
					c-1.2,0.5-2.6,1.1-3.5,2c-0.9,0.9-2,1.9-2.6,3.1c-0.7,1.3,0.7,2.8,2.1,2.1c2.8-1.6,6-2.8,9.1-3.5c1.4-0.3,2.7-0.7,4.1-0.8
					c1.2-0.1,2.3-0.3,3.2-1.1c0.8-0.7,0.4-2.3-0.7-2.5c-1.5-0.2-3,0-4.6,0c-0.6,0-1.1-0.1-1.8-0.2c-0.2,0-0.4-0.1-0.6-0.1
					c-0.3-0.1-0.3,0.1,0.2,0.4c-0.1-0.4,0.5,0.1-0.5,0.3c-0.6-0.3-1.2-0.7-1.8-1c0.1,0.8,0.1,1.4,0.5,2.1c0.3,0.5,0.7,0.9,1.2,1.2
					c1.3,0.8,3,1.2,4.5,1.4c2.8,0.5,6.1,0.6,8.7,2.1c0-0.9,0-1.7,0-2.6c-0.9,0.4-2.3-0.1-3.2-0.3c-1.1-0.2-2.1-0.4-3.2-0.5
					c-2.3-0.2-4.3-0.1-6.5,0.6c-2.1,0.6-4.1,1.3-6,2.2c-0.9,0.4-1.8,0.5-2.7,0.7c-0.4,0.1-0.7,0.2-1.1,0.3c-0.1,0-0.2,0.1-0.4,0.1
					c-0.4,0.1-0.3,0.1,0.5,0.1c0.2,0.3,0.5,0.6,0.7,0.9c0,0.2,0,0.3,0,0.5c-0.3,0.3-0.7,0.7-1,1c2.4-0.7,5.1-0.6,7.6-0.6
					c2.9,0,5.7-0.2,8.6-0.2c1.3,0,2.7,0,4-0.1c1.4-0.1,2.8-0.3,4.2-0.2c1.3,0.1,2.6,0.6,3.9,0.8c1.4,0.2,2.9,0.4,4.3,0.4
					c1.9,0,1.9-3,0-3c-2.7,0-5.3-0.1-8,0.2c-2.6,0.3-5.1,0.7-7.7,0.8c-2.6,0.1-5-0.4-7.6-0.5c-2.7-0.1-5.4,0.2-8.2,0.2
					c-1.9,0-1.9,3,0,3c2.6-0.1,5.3-0.3,7.9-0.2c2.6,0.1,5.1,0.6,7.8,0.6c2.5-0.1,5-0.4,7.4-0.7c2.7-0.4,5.5-0.3,8.3-0.3c0-1,0-2,0-3
					c-2.4,0-4.6-0.6-6.9-1c-2.2-0.4-4.5,0-6.7,0c-4.7,0.2-9.3,0.2-14,0.3c-1.9,0-4.4-0.1-6.1,0.7c-1.6,0.8-1,3.3,0.8,3.3
					c0.5,0,0.9-0.2,1.4-0.4c1.1-0.3,2.2-0.4,3.3-0.8c1.9-0.7,3.8-1.5,5.7-2.1c1.2-0.4,2.4-0.8,3.6-0.8c1.2-0.1,2.5,0.1,3.7,0.3
					c2.3,0.4,4.7,1.3,6.9,0.2c1-0.5,0.9-2.1,0-2.6c-2.2-1.2-4.7-1.6-7.1-2c-1.4-0.2-2.9-0.4-4.3-0.8c-0.5-0.1-1.4-0.3-1.8-0.7
					c-0.3-0.4-0.2-1-0.3-1.5c-0.1-0.8-1.1-1.2-1.8-1c-2.1,0.5-2.2,3.8-0.5,4.8c0.5,0.3,1,0.2,1.6,0.3c0.6,0.1,1.1,0.2,1.7,0.3
					c1.4,0.1,3-0.4,4.4-0.2c-0.2-0.8-0.4-1.7-0.7-2.5c-0.5,0.5-2.1,0.4-2.7,0.5c-1.5,0.2-3,0.6-4.5,1c-2.9,0.8-6,2-8.6,3.5
					c0.7,0.7,1.4,1.4,2.1,2.1c0.4-0.8,1.3-1.5,1.9-2.1c0.7-0.7,1.5-1.2,2.4-1.5c0.8-0.3,1.6-0.5,2.5-0.8c0.5-0.1,1.6-0.6,2-0.4
					c-0.2-0.4-0.5-0.9-0.7-1.3c0-1,0.4-0.6,0-0.4c-0.2,0.1-0.4,0.2-0.5,0.3c-0.5,0.3-1,0.6-1.6,0.9c-0.9,0.5-1.9,0.6-2.3,1.7
					c-1.2,3.2,3.8,2.8,5.5,2.7c1.4-0.1,2.8-0.1,4.3-0.1c1.5,0,3,0.3,4.5,0.3c1.6,0,3.1,0.3,4.7,0.3c1.6,0,3.3,0,4.9,0
					C85,122.4,85,119.4,83.1,119.4L83.1,119.4z"/>
			</g>
		</g>
		<g>
			<g>
				<path class="st0" d="M100.7,130.1c0,0.6,0.1,1.3,0,2c-0.1,0.6-0.2,1.1-0.3,1.7c0,0.1,0,0.2,0,0.3c0,0-0.1,0.4,0,0.2
					c0-0.2,0,0.2,0,0.2c0,0.1,0,0.2-0.1,0.3c0,0.1-0.1,0.2-0.1,0.3c0,0-0.1,0.4,0,0.2c0.1-0.2,0,0.1-0.1,0.1c0-0.1,0.1-0.1,0.1-0.2
					c0.2-0.2,0.4-0.3,0.7-0.3c0.5,0.4,1,0.7,1.4,1.1c-0.1-0.4-0.1-0.9,0-1.4c0-0.4,0-0.8,0-1.2c0.1-0.5,0.3-1,0.5-1.5
					c0.2-0.5,0.3-1,0.3-1.5c0.1-0.4,0.2-0.9,0.2-1.3c0.1-0.5,0.1-1.1,0.2-1.6c0.2-0.9,0.3-2,0.8-2.8c0.4-0.7,0.2-1.6-0.5-2.1
					c-0.7-0.4-1.7-0.2-2.1,0.5c-0.5,1.1-0.8,2.2-1,3.4c-0.1,0.6-0.2,1.2-0.2,1.8c-0.1,0.6-0.2,1.2-0.3,1.8c-0.1,1-0.7,2-0.8,3
					c-0.1,1.1-0.2,2.4,0.1,3.6c0.2,0.6,0.8,1.1,1.4,1.1c1.7,0,2.2-1.8,2.4-3.2c0-0.3,0.1-0.6,0.1-0.9c0-0.3-0.1,0.3,0,0.1
					c0.1-0.2,0.1-0.5,0.1-0.7c0.2-1,0.2-2,0.2-3.1C103.7,128.2,100.7,128.2,100.7,130.1L100.7,130.1z"/>
			</g>
		</g>
		<polyline class="st1" points="50.2,125 99.6,124.7 99.6,113.9 109.7,113.2 109.3,138.5 113.6,143.4 		"/>
		<line class="st1" x1="99.6" y1="124.7" x2="99.6" y2="138.5"/>
		<line class="st1" x1="65.5" y1="112.6" x2="51.1" y2="120.5"/>
		<line class="st1" x1="57" y1="124.8" x2="68.3" y2="115.1"/>
		<line class="st1" x1="66.5" y1="124.3" x2="74.4" y2="117.4"/>
		<line class="st1" x1="74.8" y1="124.1" x2="83.7" y2="117.9"/>
		<g>
			<g>
				<path class="st0" d="M65.1,116.4c1.9,0,1.9-3,0-3C63.1,113.4,63.1,116.4,65.1,116.4L65.1,116.4z"/>
			</g>
		</g>
	</g>
	<line class="st1" x1="113.4" y1="143.4" x2="39.2" y2="145.1"/>
	<g>
		<g>
			<path class="st3" d="M111.6,147.3c1.9,0,1.9-3,0-3C109.7,144.3,109.7,147.3,111.6,147.3L111.6,147.3z"/>
		</g>
	</g>
	<g>
		<g>
			<path class="st3" d="M96.2,147.6c1.2,0,2.5,0,3.7,0c0.6,0,1.2,0,1.8-0.2c0.2-0.1,0.6-0.2,0.8-0.2c-0.2,0-0.2,0-0.1,0
				c0.1,0,0.1,0,0.2,0c0.2,0,0.3,0,0.5,0c0.8,0,1.5-0.7,1.5-1.5c0-0.8-0.7-1.5-1.5-1.5c-0.7,0-1.3,0.1-2,0.3c-0.1,0-0.2,0.1-0.3,0.1
				c-0.2,0-0.1,0,0.1,0c-0.1,0-0.2,0-0.2,0c-0.3,0-0.5,0-0.8,0c-1.2,0-2.5,0-3.7,0c-0.8,0-1.5,0.7-1.5,1.5
				C94.7,146.9,95.3,147.6,96.2,147.6L96.2,147.6z"/>
		</g>
	</g>
	<g>
		<g>
			<path class="st3" d="M105,147.3c1.9,0,1.9-3,0-3C103,144.3,103,147.3,105,147.3L105,147.3z"/>
		</g>
	</g>
	<g>
		<g>
			<path class="st3" d="M109.9,147.3c1.9,0,1.9-3,0-3C108,144.3,107.9,147.3,109.9,147.3L109.9,147.3z"/>
		</g>
	</g>
	<g>
		<g>
			<path class="st3" d="M107.4,147.3c1.9,0,1.9-3,0-3C105.4,144.3,105.4,147.3,107.4,147.3L107.4,147.3z"/>
		</g>
	</g>
	<g>
		<g>
			<path class="st3" d="M115.2,145c0.2,0.1-0.1-0.1-0.2-0.2c-0.3-0.2-0.6-0.4-0.9-0.5c-0.2,0-0.4-0.1-0.6-0.1c-0.1,0-0.2,0-0.1,0
				c-0.3,0-0.6-0.1-0.9-0.1c-1-0.1-2.1-0.1-3.2,0c-0.3,0-0.6,0.1-0.9,0.1c-0.3,0,0.2,0-0.1,0c-0.1,0-0.2,0-0.4,0c-0.5,0-1,0-1.4,0
				c-0.2,0-0.4,0-0.7,0.1c-0.2,0-0.4,0-0.6,0.1c0,0-0.3,0-0.1,0c0.2,0,0,0-0.1,0c-0.1,0-0.2,0-0.2,0c-0.1,0-0.2,0-0.2,0
				c-0.1,0-0.1,0,0,0c0.1,0,0.2,0,0.3,0.1c0,0.9,0,1.7,0,2.6c0,0-0.2,0.1-0.3,0.1c0,0,0.3,0,0.4,0c0.2,0,0.4,0,0.6,0
				c0.5,0,1.1,0,1.6,0c1.1,0,2.2-0.1,3.3-0.1c0.8,0,1.5-0.7,1.5-1.5c0-0.8-0.7-1.5-1.5-1.5c-0.6,0-1.2,0.1-1.8,0.1
				c-0.6,0-1.3,0-1.9,0c-1.2,0-2.4-0.2-3.5,0.3c-1,0.5-1,2.1,0,2.6c0.8,0.4,1.6,0.3,2.5,0.2c-0.1,0,0.1,0,0.1,0c0.1,0,0.2,0,0.3,0
				c0.2,0,0.5,0,0.7,0c0.5,0,1.1,0,1.6-0.1c0.1,0,0.3,0,0.4-0.1c0.3,0-0.2,0,0.1,0c0.3,0,0.5,0,0.8,0c0.5,0,1.1,0,1.6,0
				c0.2,0,0.5,0,0.7,0c0,0,0.3,0,0.2,0c-0.1,0,0.3,0.1,0.3,0.1c0.1,0,0.3,0.1,0.4,0c0.2,0,0.1,0-0.2-0.1c-0.3-0.2-0.4-0.2-0.2-0.1
				c0.2,0.2,0.5,0.4,0.7,0.5c0.7,0.4,1.7,0.1,2.1-0.5C116.1,146.4,115.8,145.5,115.2,145L115.2,145z"/>
		</g>
	</g>
	<g>
		<g>
			<path class="st3" d="M106,145.9c0-0.1,0-0.2,0-0.3c0-0.2,0-0.4-0.1-0.6c-0.1-0.2-0.2-0.3-0.3-0.5c-0.1-0.1-0.3-0.2-0.5-0.3
				c-0.2-0.1-0.4-0.1-0.6-0.1c-0.1,0-0.3,0-0.4,0.1c-0.3,0.1-0.5,0.2-0.7,0.4c-0.1,0.1-0.2,0.2-0.2,0.3c-0.1,0.2-0.2,0.5-0.2,0.8
				c0,0.1,0,0.1,0,0.2c0,0.2,0,0.4,0.1,0.6c0.1,0.2,0.2,0.3,0.3,0.5c0.1,0.1,0.3,0.2,0.5,0.3c0.2,0.1,0.4,0.1,0.6,0.1
				c0.1,0,0.3,0,0.4-0.1c0.3-0.1,0.5-0.2,0.7-0.4c0.1-0.1,0.2-0.2,0.2-0.3c0.1-0.2,0.2-0.5,0.2-0.8c0-0.1,0-0.1,0-0.2
				c0-0.2,0-0.4-0.1-0.6c-0.1-0.2-0.2-0.3-0.3-0.5c-0.1-0.1-0.3-0.2-0.5-0.3c-0.2-0.1-0.4-0.1-0.6-0.1c-0.1,0-0.3,0-0.4,0.1
				c-0.3,0.1-0.5,0.2-0.7,0.4c-0.1,0.1-0.2,0.2-0.2,0.3c-0.1,0.2-0.2,0.5-0.2,0.8c0,0.1,0,0.2,0,0.3c0,0.2,0,0.4,0.1,0.6
				c0.1,0.2,0.2,0.3,0.3,0.5c0.1,0.1,0.3,0.2,0.5,0.3c0.2,0.1,0.4,0.1,0.6,0.1c0.1,0,0.3,0,0.4-0.1c0.3-0.1,0.5-0.2,0.7-0.4
				c0.1-0.1,0.2-0.2,0.2-0.3C105.9,146.5,106,146.2,106,145.9L106,145.9z"/>
		</g>
	</g>
	<g>
		<g>
			<path class="st3" d="M105.9,145.7c-0.7-1.8-2.8-1.4-4.3-1.4c-1.1,0-2.2,0-3.3,0c-0.5,0-1.1,0-1.6,0c-0.3,0-0.6,0-0.8,0
				c-0.2,0-0.4,0-0.5,0.1c-0.1,0-0.4,0-0.1,0.1c-0.8,0-1.5,0.7-1.5,1.5c0,0.8,0.7,1.5,1.5,1.5c0.3,0,0.5,0,0.8-0.1c0.1,0,0.2,0,0,0
				c0.1,0,0.2,0,0.3,0c0.5,0,1,0,1.4,0c1,0,2,0,3,0c0.7,0,1.4,0,2.1,0c0.3,0,0.5,0,0.8,0c0.1,0,0.1,0,0.2,0c0.2,0-0.3-0.1-0.1,0
				c0,0,0.1,0,0.2,0c-0.2,0-0.7-0.6-0.8-0.8c0.3,0.7,1,1.3,1.8,1C105.6,147.3,106.2,146.5,105.9,145.7L105.9,145.7z"/>
		</g>
	</g>
	<g>
		<g>
			<path class="st3" d="M117.4,146.8c0-1.4,0-3.2-1.8-3.4c-0.5,0-1.1,0-1.6,0c-0.5,0-0.9,0.2-1.3,0.6c-0.2,0.2-0.3,0.4-0.4,0.7
				c0,0.1,0,0.2,0,0.3c-0.1,0.3,0,0.3,0.1-0.2c0.2-0.2,0.4-0.4,0.5-0.5c0.4-0.1,0.5-0.1,0.2-0.1c-0.1,0-0.1,0-0.2,0
				c-0.2,0-0.5,0-0.7,0c-0.5,0-0.9,0-1.4,0c-1,0-1.9,0-2.9,0c-0.9,0-1.7,0.1-2.6,0.1c-1,0-1.9,0.2-2.7,0.8c-0.6,0.5-0.5,1.6,0,2.1
				c0.6,0.6,1.5,0.5,2.1,0c-0.3,0.2-0.3,0.2-0.1,0.1c0.2,0,0.2-0.1,0.1,0c0.2,0,0.3,0,0.5,0c0.5,0,1-0.1,1.5-0.1c1-0.1,2.1,0,3.1,0
				c1,0,2,0,3,0c0.5,0,1,0,1.5-0.3c0.3-0.2,0.5-0.4,0.6-0.6c0-0.1,0.4-1.3,0.2-0.6c-0.1,0.2-0.3,0.4-0.4,0.7c0,0,0,0,0.1-0.1
				c-0.2,0.1-0.4,0.3-0.7,0.4c-0.1,0-0.1,0,0.1,0c0.1,0,0.3,0,0.4,0c0.3,0,0.5,0,0.8,0c-0.3-0.1-0.5-0.1-0.8-0.2
				c-0.1-0.2-0.3-0.4-0.4-0.5c0,0,0,0.1,0,0.1c0,0,0,0.3,0,0.3c0,0.2,0,0.5,0,0.7C114.4,148.8,117.4,148.8,117.4,146.8L117.4,146.8z
				"/>
		</g>
	</g>
	<line class="st1" x1="94.7" y1="143.3" x2="99.8" y2="137.8"/>
</g>
</svg>
