<svg id="Layer_1" data-name="Layer 1" xmlns="http://www.w3.org/2000/svg" viewBox="0 0 501.18 563.76"><defs><style>.cls-1{fill:#061791;}.cls-1,.cls-2,.cls-3,.cls-4,.cls-5{stroke:#000;stroke-miterlimit:10;}.cls-2,.cls-6{fill:#a80e28;}.cls-3{fill:#d1d1d1;}.cls-4{fill:none;}</style></defs><title>tully</title><rect class="cls-1" x="0.92" y="254.61" width="499.76" height="308.65"/><rect class="cls-2" x="0.5" y="0.5" width="499.76" height="254.11"/><polyline class="cls-3" points="330.74 161.6 330.13 171.04 308.71 182.64 272.14 186.99 237.96 192.85 221.36 215.31 218.43 251.44 219.4 280.74 234.05 302.23 257.49 317.85 266.28 331.52 250.66 331.52 238.94 343.24 284.84 369.61 315.11 375.47 359.06 356.92 372.73 329.57 403.98 304.18 428.39 315.9 415.7 336.41 401.05 361.8 408.86 378.4 407.89 411.6 393.24 405.75 360.03 387.19 311.2 415.51 254.56 420.39 176.43 396.95 139.32 359.85 125.65 311.01 123.7 271.95 115.14 252.57 73.13 236.28 95.7 221.23 100.72 208.06 102.6 193.64 123.7 186.99 135.2 167.94 175.46 128.39 211.59 111.79 271.16 116.67 311.39 134.1 323.03 141.86"/><polyline class="cls-4" points="229.07 187.62 215.31 179.58 202.68 171.55 202.68 156.63 208.42 140.57 165.96 169.25 157.93 203.68 143.01 258.76 146.46 318.43 165.96 365.47 204.98 383.83"/><polygon class="cls-5" points="185.99 325.38 194.9 346.68 203.81 338.69 197.44 314.72 179.62 312.06 185.99 325.38"/><polygon class="cls-5" points="184.32 202.53 183.35 191.41 178.06 188.76 170.11 227.16 164.81 236.43 175.41 238.42 183.35 234.44 188.65 225.18 207.19 209.95 184.32 202.53"/><polyline class="cls-4" points="255.33 175.3 247.77 177.56 235.68 170.76 225.86 152.63"/><polyline class="cls-4" points="286 179.1 300.98 181.06 308.13 181.43 330.13 171.04 330.74 161.6 316.35 159.13 295.64 168.52 289.93 161.69 326.08 143.2 307.82 132.37"/><polyline class="cls-6" points="324.67 144.9 330.74 161.6 316.35 159.13 295.64 168.52 289.93 161.69"/><ellipse class="cls-5" cx="253.26" cy="131.44" rx="3.31" ry="4.41" transform="translate(44.53 326.51) rotate(-70.15)"/></svg>