<svg id="Layer_1" data-name="Layer 1" xmlns="http://www.w3.org/2000/svg" viewBox="0 0 501.75 561.27"><defs><style>.cls-1{fill:#6b0d09;}.cls-2{fill:#8c2311;}.cls-3{fill:#efb600;}</style></defs><title>lannister</title><rect class="cls-1" width="501.75" height="561.07"/><rect class="cls-2" x="151.99" width="193.82" height="561.27"/><polygon class="cls-3" points="305.79 145.01 239.2 130.62 222.36 112.66 215.63 123.89 210.21 116.23 200.28 139.4 193.67 133.44 191.68 169.84 183.07 177.78 178.44 193.01 168.51 200.29 170.5 204.92 181.09 202.94 169.18 244.64 162.56 283.69 153.29 287 139.39 277.73 137.41 288.98 148 311.49 161.23 315.46 147.33 325.39 134.76 308.84 129.46 326.71 151.31 349.88 137.41 364.44 128.14 381.65 114.24 381.65 117.55 392.24 134.76 397.53 158.59 379.66 169.18 373.71 142.04 409.45 167.19 408.79 177.78 404.81 194.99 414.74 201.61 422.69 210.21 398.86 226.76 429.97 233.38 398.2 247.28 389.59 243.97 406.8 255.88 426 262.5 409.45 273.09 398.86 275.08 427.32 283.68 430.63 283.02 422.02 290.96 403.49 306.85 428.64 312.81 394.22 322.07 416.73 335.31 416.73 329.35 408.12 326.71 394.22 320.75 387.61 341.27 402.17 363.11 399.52 367.74 368.41 356.49 355.17 353.18 367.75 338.62 364.44 328.69 347.23 321.13 335.18 310.58 316.9 321.13 315.49 331.67 306.35 335.19 293 323.24 276.83 307.07 273.31 311.99 283.86 301.44 289.48 281.76 290.18 275.43 274.01 282.46 255.03 290.9 245.19 334.48 257.14 339.41 231.83 333.78 217.77 328.86 229.72 321.13 217.07 316.91 229.02 295.11 229.72 283.87 217.77 293.71 202.3 306.36 194.57 319.02 197.38 323.24 207.93 326.75 196.68 331.67 212.85 348.55 191.76 356.28 173.48 336.59 160.82 314.8 159.42 305.79 145.01"/></svg>